<svg width="27" height="26" viewBox="0 0 27 26" fill="none" xmlns="http://www.w3.org/2000/svg">
<path fill-rule="evenodd" clip-rule="evenodd" d="M4.59093 8.6818C3.99471 8.6818 3.51139 9.16513 3.51139 9.76135V20.5568C3.51139 21.153 3.99471 21.6364 4.59093 21.6364H21.8637C22.4599 21.6364 22.9432 21.153 22.9432 20.5568V9.76135C22.9432 9.16513 22.4599 8.6818 21.8637 8.6818H4.59093ZM1.35229 9.76135C1.35229 7.9727 2.80228 6.52271 4.59093 6.52271H21.8637C23.6523 6.52271 25.1023 7.9727 25.1023 9.76135V20.5568C25.1023 22.3455 23.6523 23.7954 21.8637 23.7954H4.59093C2.80228 23.7954 1.35229 22.3455 1.35229 20.5568V9.76135Z" fill="#0074D9"/>
<path fill-rule="evenodd" clip-rule="evenodd" d="M8.77814 3.1531C9.3855 2.54574 10.2093 2.20453 11.0682 2.20453H15.3864C16.2453 2.20453 17.0691 2.54574 17.6764 3.1531C18.2838 3.76047 18.625 4.58423 18.625 5.44317V22.7159C18.625 23.3121 18.1417 23.7954 17.5455 23.7954C16.9493 23.7954 16.4659 23.3121 16.4659 22.7159V5.44317C16.4659 5.15685 16.3522 4.88227 16.1497 4.67981C15.9473 4.47736 15.6727 4.36362 15.3864 4.36362H11.0682C10.7819 4.36362 10.5073 4.47736 10.3048 4.67981C10.1024 4.88227 9.98866 5.15685 9.98866 5.44317V22.7159C9.98866 23.3121 9.50533 23.7954 8.90911 23.7954C8.3129 23.7954 7.82957 23.3121 7.82957 22.7159V5.44317C7.82957 4.58423 8.17078 3.76047 8.77814 3.1531Z" fill="#0074D9"/>
</svg>
