<svg width="33" height="33" viewBox="0 0 33 33" fill="none" xmlns="http://www.w3.org/2000/svg">
<path fill-rule="evenodd" clip-rule="evenodd" d="M6.875 6.875C6.11561 6.875 5.5 7.49061 5.5 8.25V27.5C5.5 28.2594 6.11561 28.875 6.875 28.875H26.125C26.8844 28.875 27.5 28.2594 27.5 27.5V8.25C27.5 7.49061 26.8844 6.875 26.125 6.875H6.875ZM2.75 8.25C2.75 5.97183 4.59683 4.125 6.875 4.125H26.125C28.4032 4.125 30.25 5.97183 30.25 8.25V27.5C30.25 29.7782 28.4032 31.625 26.125 31.625H6.875C4.59683 31.625 2.75 29.7782 2.75 27.5V8.25Z" fill="#0074D9"/>
<path fill-rule="evenodd" clip-rule="evenodd" d="M22 1.375C22.7594 1.375 23.375 1.99061 23.375 2.75V8.25C23.375 9.00939 22.7594 9.625 22 9.625C21.2406 9.625 20.625 9.00939 20.625 8.25V2.75C20.625 1.99061 21.2406 1.375 22 1.375Z" fill="#0074D9"/>
<path fill-rule="evenodd" clip-rule="evenodd" d="M11 1.375C11.7594 1.375 12.375 1.99061 12.375 2.75V8.25C12.375 9.00939 11.7594 9.625 11 9.625C10.2406 9.625 9.625 9.00939 9.625 8.25V2.75C9.625 1.99061 10.2406 1.375 11 1.375Z" fill="#0074D9"/>
<path fill-rule="evenodd" clip-rule="evenodd" d="M2.75 13.75C2.75 12.9906 3.36561 12.375 4.125 12.375H28.875C29.6344 12.375 30.25 12.9906 30.25 13.75C30.25 14.5094 29.6344 15.125 28.875 15.125H4.125C3.36561 15.125 2.75 14.5094 2.75 13.75Z" fill="#0074D9"/>
</svg>
