<svg width="27" height="26" viewBox="0 0 27 26" fill="none" xmlns="http://www.w3.org/2000/svg">
<g clip-path="url(#clip0)">
<path fill-rule="evenodd" clip-rule="evenodd" d="M12.6977 2.53056C12.6974 2.53072 12.697 2.53088 12.6967 2.53104L4.07731 6.84075L4.07493 6.84194C3.89537 6.93116 3.74427 7.0687 3.6386 7.2391C3.53297 7.40944 3.47693 7.60586 3.47679 7.80629C3.47679 7.80623 3.47679 7.80636 3.47679 7.80629V18.0734C3.47539 18.2742 3.53012 18.4715 3.63486 18.6428C3.73942 18.8139 3.88965 18.9525 4.06863 19.0429C4.06833 19.0427 4.06892 19.043 4.06863 19.0429L12.6883 23.3527C12.8381 23.4276 13.0035 23.4668 13.1709 23.4668C13.3383 23.4668 13.5035 23.4278 13.6532 23.3529L22.2753 19.0418L22.2777 19.0406C22.4573 18.9514 22.6084 18.8139 22.714 18.6435C22.8197 18.4731 22.8757 18.2766 22.8758 18.0761V7.8065C22.8757 7.606 22.8197 7.4095 22.714 7.2391C22.6084 7.0687 22.4572 6.93116 22.2777 6.84194L22.2753 6.84075L13.6559 2.53104C13.6556 2.53088 13.6553 2.53072 13.6549 2.53056C13.5062 2.45682 13.3424 2.41845 13.1763 2.41845C13.0103 2.41845 12.8465 2.45682 12.6977 2.53056ZM14.1355 1.5659L14.6151 0.600768C14.168 0.37861 13.6755 0.263 13.1763 0.263C12.6771 0.263 12.1846 0.37861 11.7375 0.600768L11.7352 0.601958L3.11575 4.91167C3.11531 4.91189 3.11487 4.91211 3.11442 4.91233C2.57634 5.18001 2.12351 5.59239 1.80677 6.10316C1.48977 6.61436 1.32166 7.20385 1.32134 7.80536L1.32134 18.0625C1.31792 18.6636 1.48216 19.2538 1.79565 19.7668C2.10986 20.281 2.5615 20.6971 3.09961 20.9682L3.10259 20.9697L11.7241 25.2805C12.1733 25.5052 12.6686 25.6223 13.1709 25.6223C13.6731 25.6223 14.1684 25.5053 14.6175 25.2806C14.6176 25.2806 14.6174 25.2807 14.6175 25.2806L23.2369 20.9709C23.2372 20.9707 23.2376 20.9705 23.2379 20.9704C23.7761 20.7027 24.2291 20.2903 24.5458 19.7794C24.8628 19.2682 25.031 18.6787 25.0313 18.0772V7.80593C25.031 7.20442 24.8628 6.61436 24.5458 6.10316C24.2291 5.5924 23.7763 5.18004 23.2382 4.91235C23.2378 4.91212 23.2373 4.91189 23.2369 4.91167L14.6175 0.601958L14.1355 1.5659Z" fill="#0074D9"/>
<path fill-rule="evenodd" clip-rule="evenodd" d="M1.77999 6.16001C2.04618 5.62764 2.69354 5.41185 3.22591 5.67804L13.1763 10.6532L23.1267 5.67804C23.6591 5.41185 24.3064 5.62764 24.5726 6.16001C24.8388 6.69239 24.623 7.33975 24.0907 7.60593L13.6583 12.8221C13.3549 12.9738 12.9977 12.9738 12.6943 12.8221L2.26196 7.60593C1.72959 7.33975 1.5138 6.69239 1.77999 6.16001Z" fill="#0074D9"/>
<path fill-rule="evenodd" clip-rule="evenodd" d="M13.1763 10.7804C13.7715 10.7804 14.254 11.263 14.254 11.8582V24.5322C14.254 25.1274 13.7715 25.6099 13.1763 25.6099C12.5811 25.6099 12.0986 25.1274 12.0986 24.5322V11.8582C12.0986 11.263 12.5811 10.7804 13.1763 10.7804Z" fill="#0074D9"/>
<path fill-rule="evenodd" clip-rule="evenodd" d="M6.82374 3.29327C7.08993 2.76089 7.73729 2.54511 8.26966 2.81129L19.0469 8.19991C19.5793 8.4661 19.7951 9.11346 19.5289 9.64583C19.2627 10.1782 18.6153 10.394 18.083 10.1278L7.30572 4.73918C6.77334 4.473 6.55756 3.82564 6.82374 3.29327Z" fill="#0074D9"/>
</g>
<defs>
<clipPath id="clip0">
<rect width="25.8654" height="25.8654" fill="white" transform="translate(0.243652 0.00323486)"/>
</clipPath>
</defs>
</svg>
