<svg width="60" height="60" viewBox="0 0 60 60" fill="none" xmlns="http://www.w3.org/2000/svg">
<g clip-path="url(#clip0)">
<path fill-rule="evenodd" clip-rule="evenodd" d="M9.73574 10.3343C15.2809 5.29324 22.5059 2.5 30 2.5C37.4941 2.5 44.7191 5.29324 50.2643 10.3343C55.8095 15.3754 59.2766 22.3023 59.9887 29.7624C60.0556 30.4636 59.8237 31.1605 59.3499 31.6817C58.8761 32.2029 58.2044 32.5 57.5 32.5H32.5V47.5C32.5 48.8261 33.0268 50.0979 33.9645 51.0355C34.9022 51.9732 36.1739 52.5 37.5 52.5C38.8261 52.5 40.0979 51.9732 41.0356 51.0355C41.9732 50.0979 42.5 48.8261 42.5 47.5C42.5 46.1193 43.6193 45 45 45C46.3807 45 47.5 46.1193 47.5 47.5C47.5 50.1522 46.4464 52.6957 44.5711 54.5711C42.6957 56.4464 40.1522 57.5 37.5 57.5C34.8479 57.5 32.3043 56.4464 30.4289 54.5711C28.5536 52.6957 27.5 50.1522 27.5 47.5V32.5H2.50001C1.79565 32.5 1.12397 32.2029 0.65016 31.6817C0.176354 31.1605 -0.0556084 30.4636 0.0113221 29.7624C0.723429 22.3023 4.19057 15.3754 9.73574 10.3343ZM54.5968 27.5C53.5208 22.3352 50.8393 17.6143 46.9009 14.034C42.2761 9.82963 36.2503 7.5 30 7.5C23.7498 7.5 17.7239 9.82963 13.0991 14.034C9.16077 17.6143 6.47924 22.3352 5.4032 27.5H54.5968Z" fill="#0074D9"/>
</g>
<defs>
<clipPath id="clip0">
<rect width="60" height="60" fill="white"/>
</clipPath>
</defs>
</svg>
