<svg width="27" height="26" viewBox="0 0 27 26" fill="none" xmlns="http://www.w3.org/2000/svg">
<g clip-path="url(#clip0)">
<path d="M5.63214 14.5525C5.30882 14.5525 4.98551 14.4448 4.76996 14.1215C4.33887 13.6904 4.44665 12.936 4.87773 12.6126C9.7275 8.62506 16.6249 8.62506 21.4747 12.6126C21.9058 13.0437 22.0136 13.6904 21.5825 14.1215C21.1514 14.5525 20.5047 14.6603 20.0737 14.2292C16.0861 10.8883 10.2664 10.8883 6.27878 14.2292C6.171 14.5525 5.84769 14.5525 5.63214 14.5525Z" fill="#0074D9"/>
<path d="M1.75233 10.7805C1.42902 10.7805 1.1057 10.6727 0.890154 10.4572C0.459064 10.0261 0.566837 9.37947 0.997927 8.94838C7.89536 2.91312 18.3493 2.91312 25.2467 8.94838C25.6778 9.37947 25.7856 10.0261 25.3545 10.4572C24.9234 10.8883 24.2768 10.9961 23.8457 10.565C17.7027 5.17634 8.542 5.17634 2.50674 10.565C2.2912 10.6727 2.07565 10.7805 1.75233 10.7805Z" fill="#0074D9"/>
<path d="M16.9482 18.4324C16.7327 18.4324 16.5172 18.3246 16.3016 18.2168C14.4695 16.9235 11.8829 16.9235 10.0508 18.2168C9.51195 18.5401 8.86531 18.4324 8.542 18.0013C8.21868 17.4624 8.32645 16.8158 8.75754 16.4925C11.3441 14.6603 14.9006 14.6603 17.4871 16.4925C18.026 16.8158 18.1337 17.4624 17.7027 18.0013C17.5949 18.3246 17.2716 18.4324 16.9482 18.4324Z" fill="#0074D9"/>
<path d="M13.1762 22.6355C13.0684 22.6355 12.8529 22.6355 12.7451 22.5277C12.6374 22.5277 12.5296 22.4199 12.4218 22.3122C12.2063 22.0966 12.0985 21.8811 12.0985 21.5578C12.0985 21.45 12.0985 21.2344 12.2063 21.1267C12.314 21.0189 12.314 20.9111 12.4218 20.8033C12.8529 20.3723 13.4995 20.3723 13.9306 20.8033C14.1462 21.0189 14.2539 21.3422 14.2539 21.5578C14.2539 21.8811 14.1462 22.0966 13.9306 22.3122C13.7151 22.5277 13.4995 22.6355 13.1762 22.6355Z" fill="#0074D9"/>
</g>
<defs>
<clipPath id="clip0">
<rect width="25.8654" height="25.8654" fill="white" transform="translate(0.243652 0.00323486)"/>
</clipPath>
</defs>
</svg>
