<svg width="60" height="60" viewBox="0 0 60 60" fill="none" xmlns="http://www.w3.org/2000/svg">
<path fill-rule="evenodd" clip-rule="evenodd" d="M28.0058 12.5475C27.6018 12.4676 27.1842 12.4888 26.7903 12.6092C26.3964 12.7295 26.0384 12.9454 25.748 13.2375C24.7746 14.2167 23.1917 14.2214 22.2125 13.248C21.2333 12.2745 21.2286 10.6916 22.202 9.71243C23.0732 8.83611 24.1473 8.1886 25.329 7.82746C26.5107 7.46633 27.7634 7.40276 28.9755 7.6424C30.1877 7.88204 31.3219 8.41748 32.2773 9.2011C33.2327 9.98473 33.9797 10.9923 34.4519 12.1342C34.924 13.276 35.1067 14.5169 34.9838 15.7464C34.8608 16.9759 34.4359 18.156 33.747 19.1818C33.058 20.2075 32.1263 21.0472 31.0346 21.6261C29.9447 22.204 28.7291 22.5042 27.4955 22.5C27.4935 22.5 27.4915 22.4999 27.4895 22.4999L27.5 20V22.5H27.4955H5C3.61929 22.5 2.5 21.3807 2.5 20C2.5 18.6192 3.61929 17.5 5 17.5H27.5105C27.9224 17.5017 28.3283 17.4016 28.6922 17.2087C29.0561 17.0157 29.3667 16.7358 29.5963 16.3939C29.826 16.052 29.9676 15.6586 30.0086 15.2488C30.0496 14.839 29.9887 14.4253 29.8313 14.0447C29.6739 13.6641 29.4249 13.3282 29.1064 13.067C28.788 12.8058 28.4099 12.6273 28.0058 12.5475ZM49.4723 20.0724C48.868 19.9519 48.2433 19.9821 47.6534 20.1605C47.0636 20.3388 46.5268 20.6598 46.0905 21.095C45.113 22.07 43.5301 22.068 42.555 21.0905C41.5799 20.1129 41.5819 18.53 42.5595 17.555C43.5774 16.5396 44.83 15.7907 46.2062 15.3745C47.5825 14.9583 49.0401 14.8877 50.4502 15.169C51.8602 15.4502 53.1792 16.0745 54.2906 16.9868C55.4019 17.8991 56.2713 19.0711 56.8219 20.3994C57.3725 21.7276 57.5872 23.171 57.4472 24.602C57.3072 26.033 56.8167 27.4074 56.0192 28.6037C55.2216 29.8001 54.1415 30.7814 52.8744 31.461C51.6073 32.1405 50.1923 32.4974 48.7545 32.5L48.75 32.5H5C3.61929 32.5 2.5 31.3807 2.5 30C2.5 28.6192 3.61929 27.5 5 27.5H48.7473C49.3629 27.4986 49.9687 27.3456 50.5112 27.0547C51.0542 26.7634 51.5171 26.3429 51.859 25.8302C52.2008 25.3174 52.411 24.7284 52.471 24.1151C52.531 23.5019 52.4389 22.8832 52.203 22.314C51.967 21.7448 51.5944 21.2424 51.1181 20.8515C50.6419 20.4605 50.0766 20.1929 49.4723 20.0724ZM34.9951 37.5C36.2288 37.4957 37.4446 37.7959 38.5346 38.3739C39.6263 38.9527 40.558 39.7924 41.247 40.8181C41.9359 41.8439 42.3608 43.024 42.4838 44.2535C42.6067 45.483 42.424 46.7239 41.9519 47.8658C41.4797 49.0076 40.7327 50.0152 39.7773 50.7988C38.8219 51.5824 37.6877 52.1179 36.4755 52.3575C35.2634 52.5972 34.0107 52.5336 32.829 52.1725C31.6473 51.8113 30.5732 51.1638 29.702 50.2875C28.7286 49.3083 28.7333 47.7254 29.7125 46.752C30.6917 45.7785 32.2746 45.7832 33.248 46.7624C33.5384 47.0545 33.8964 47.2704 34.2903 47.3908C34.6842 47.5111 35.1018 47.5323 35.5058 47.4524C35.9099 47.3726 36.288 47.1941 36.6064 46.9329C36.9249 46.6717 37.1739 46.3358 37.3313 45.9552C37.4887 45.5746 37.5496 45.1609 37.5086 44.7511C37.4676 44.3413 37.326 43.9479 37.0963 43.606C36.8667 43.2641 36.5561 42.9842 36.1922 42.7912C35.8283 42.5983 35.4224 42.4982 35.0105 42.4999L35 42.5H5C3.61929 42.5 2.5 41.3807 2.5 40C2.5 38.6192 3.61929 37.5 5 37.5H34.9951Z" fill="#0074D9"/>
</svg>
