<svg width="16" height="16" viewBox="0 0 16 16" fill="none" xmlns="http://www.w3.org/2000/svg">
<path fill-rule="evenodd" clip-rule="evenodd" d="M8.5946 0.694564C8.85582 0.807957 9.01101 1.07999 8.97569 1.36255L8.42435 5.7733H13.471C13.7199 5.7733 13.9463 5.91728 14.0519 6.14269C14.1574 6.36809 14.1231 6.63422 13.9637 6.82543L7.54902 14.5231C7.36671 14.7419 7.06201 14.8143 6.80079 14.7009C6.53958 14.5875 6.38438 14.3154 6.4197 14.0329L6.97105 9.62214H1.92444C1.67554 9.62214 1.4491 9.47815 1.34353 9.25275C1.23796 9.02734 1.2723 8.76122 1.43165 8.57L7.84638 0.872327C8.02868 0.653563 8.33338 0.581172 8.5946 0.694564ZM3.29401 8.33919H7.6977C7.88169 8.33919 8.05683 8.4182 8.1786 8.55614C8.30036 8.69407 8.35704 8.87766 8.33422 9.06023L7.96413 12.021L12.1014 7.05624H7.6977C7.5137 7.05624 7.33857 6.97724 7.2168 6.8393C7.09503 6.70136 7.03836 6.51778 7.06118 6.33521L7.43127 3.37448L3.29401 8.33919Z" fill="#BDBDBD"/>
</svg>
